<?xml version="1.0" encoding="utf-8"?>
<!-- Generator: Adobe Illustrator 18.1.1, SVG Export Plug-In . SVG Version: 6.00 Build 0)  -->
<svg version="1.1" xmlns="http://www.w3.org/2000/svg" xmlns:xlink="http://www.w3.org/1999/xlink" x="0px" y="0px"
	 viewBox="0 0 102.2 99.7" enable-background="new 0 0 102.2 99.7" xml:space="preserve">
<g id="Layer_1">
	
		<text transform="matrix(1 0 0 1 116.1346 66.7332)" display="none" fill="#1E2D3A" font-family="'Sacramento-Regular'" font-size="72">lazydaisy</text>
</g>
<g id="Layer_2">
	<g>
		<g>
			<path fill="#2F3237" d="M101.1,51.8c-1.2,1.3-3.1,1.6-4.1,3.1c-0.9,1.4-2.7,1.7-4.3,1.9c-5.9,0.7-11.8,1-17.7,1
				c-1.6,0-3.6-0.3-4-1.9c1.9,0,3.7,0,5.6,0c6.8,0.1,13.9,0.1,20-2.9c1.7-0.8,3.5-2.1,3.7-4c0.1-1.5-0.8-2.9-2.1-3.8
				c-1.3-0.8-2.8-1.2-4.2-1.5c-8.1-1.7-16.7-2.7-24.6,0c-1.2,0.4-2.3,0.9-3.5,1.3c1.1-1.8,2.9-3.2,4.8-4c2.1-0.8,4.4-0.9,6.6-0.9
				c4.8,0,9.6,0.3,14.4,1c2.4,0.3,4.9,0.7,7,2c2.1,1.2,3.7,3.5,3.6,5.9C102.1,50.1,101.7,51.1,101.1,51.8L101.1,51.8z"/>
			<path fill="#2F3237" d="M45.1,6.4c7,9.8,10.1,22.3,8.5,34.2c-1.3-1.8-1.3-4.2-1.4-6.5C52,22.1,47.9,9.3,38,2.3
				c-2.4-1.7-6,0.4-6.9,3.3s0.2,5.9,1.3,8.6c4,9.8,9.1,19.1,15.3,27.7c-2.9-0.9-4.8-3.7-6.4-6.3c-4.1-6.7-7.6-13.8-10.5-21.1
				c-0.9-2.2-1.7-4.6-1.8-7c0-2.4,0.8-5,2.8-6.4C34-0.4,37-0.3,39.4,1C41.8,2.2,43.6,4.3,45.1,6.4z"/>
			<path fill="#2F3237" d="M36.4,92.3c-2.3,2.9-5,5.8-8.6,7c-2.3,0.8-5.3,0.6-6.4-1.6c-0.8-1.5-0.3-3.4,0.4-5
				c3.9-10.3,10.7-19.2,17.5-27.9c-10.1,4.3-21,6.6-32,6.7c-2.4,0-5.2-0.2-6.5-2.2c-1.3-1.8-0.7-4.5,0.7-6.2C2.9,61.5,5,60.5,7,59.7
				c9.9-4.1,20.5-6.6,31.2-7.3c-3.2-1.7-6.9-1.8-10.4-2.4C21,48.7,14.6,45.5,9.5,41c-1.7-1.5-3.4-3.4-3.6-5.7c-0.2-2.6,1.7-5,4-6
				c2.3-1.1,5-1,7.6-0.6c5.8,1.1,11,4.2,16.1,7.2c4.3,2.6,8.7,5.2,13,7.8c2.8-1.7,6-2.8,9.3-3c1.5-10.4,5.9-20.3,12.5-28.5
				c2.4-3,6-5.9,9.7-4.7c2.5,0.9,4.1,3.6,4.2,6.3c0.1,2.7-0.8,5.3-1.9,7.8c-3.4,8.1-7.9,16.1-14.9,21.4c-0.8,0.6-0.9,1.9-0.4,2.8
				s1.2,1.7,1.8,2.5c2.9,3.8,2.4,9.7-1,12.9c-2.7,2.6-1.3,7.2,0.6,10.5c4.4,7.9,10,15.2,16.6,21.5c1,0.9,2,1.9,3.3,2.1
				c1.3,0.3,2.9-0.3,3.2-1.6c0.2-0.8-0.1-1.7-0.4-2.4c-4.4-10.6-10.4-20.7-17.6-29.7c-0.8-1-1.6-2-2.5-3c6.1,2.2,9.7,8.5,12.7,14.2
				c2.5,4.8,5.1,9.6,7.6,14.4c1,2,2.1,4.1,2,6.3c-0.1,2.2-1.9,4.6-4.1,4.4c-1.2-0.1-2.3-0.9-3.2-1.7c-7.9-6.5-13.7-15.2-19.4-23.7
				c0,8.3-0.3,17.4-5.5,23.9c-0.9,1.2-2.1,2.3-3.6,2.6c-3.3,0.6-5.8-2.9-6.7-6.1C46.5,85,48,76.6,49.6,68.6
				C45.8,76.9,42,85.2,36.4,92.3 M1.8,66.3c-0.1,2.1,2.4,3.3,4.4,3.5c4,0.5,8.1-0.2,12.1-1c7.7-1.4,15.6-2.9,22.5-6.6
				c1.3-0.7,2.7-1.6,3.6-2.8c0.9-1.3,1.2-3,0.4-4.3c-1.3-2.2-4.5-2-7-1.5c-3.5,0.7-7,1.4-10.5,2c-8,1.5-16.1,3.2-23,7.5
				C3.1,63.9,1.8,64.9,1.8,66.3 M7.7,33.9c-0.1,1.2,0.6,2.4,1.4,3.3c5.4,6.6,13.8,10.1,22.3,11.3c4.2,0.6,9,0.9,12,3.9
				c1.6-1.3,2.4-3.4,2.1-5.4c-0.3-2-1.7-3.8-3.5-4.6c-5-2.2-9.5-5.5-14.3-8.1c-4.8-2.6-10.3-4.5-15.7-3.7C10.1,31,7.9,32,7.7,33.9
				 M79.3,11.4c-0.5-1-1.2-1.9-2.2-2.3c-1.7-0.6-3.5,0.7-4.8,2C64.5,18.8,59.4,29,57.9,39.8c0,0.3-0.1,0.6,0,0.9
				c0.1,0.4,0.5,0.6,0.9,0.9c1.7,1,4.2,2,5.6,0.5c3.7-3.8,7.4-7.6,9.9-12.2c1.5-2.7,2.5-5.6,4.2-8.1c0.8-1.2,1.8-2.3,2.2-3.7
				C81.3,15.8,80.4,13.4,79.3,11.4 M22.7,96.8c0.3,0.4,0.8,0.7,1.3,0.8c2.2,0.7,4.6,0,6.5-1.2c1.9-1.3,3.4-3.1,4.7-4.9
				c6-8.1,10.8-17.1,14.1-26.6c0.2-0.6,0.4-1.3,0.3-1.9c-0.2-1.5-2.2-2.3-3.7-1.9c-1.5,0.4-2.6,1.6-3.7,2.8c-8,9-15.1,19-19.5,30.2
				C22.5,94.9,22.2,96,22.7,96.8 M55.8,96.9c0.8-0.2,1.4-0.8,2-1.4c3.9-4.2,4.8-10.3,5.1-16.1c0.2-4.1,0.3-8.2,0.1-12.3
				c0-0.5-0.1-1.1-0.3-1.5c-0.3-0.4-0.9-0.6-1.3-0.3c-1.6,1.3-3.9,1.6-5.7,0.7c-0.9-0.4-1.8-1.2-2.8-1c-1.6,0.2-2.1,2.2-2.3,3.8
				c-0.3,3.6-0.7,7.3-1,10.9c-0.4,4.6-0.8,9.3,1,13.6C51.4,95.4,53.5,97.6,55.8,96.9 M63.5,47c-1.7-1.7-4-2.8-6.1-3.9
				c-0.5-0.3-1.1-0.5-1.7-0.6c-1.1-0.1-2.1,0.4-3.1,0.9c-1.2,0.6-2.3,1.2-3.5,1.8c-0.7,0.4-1.5,0.8-1.8,1.5c-0.9,1.6,0.7,3.7,0,5.3
				c-0.7,1.7-0.3,3.6,0.6,5.2c0.9,1.5,2.3,2.8,3.7,3.9c2.1,1.8,4.7,3.7,7.3,2.9c1-0.3,1.8-0.9,2.6-1.5c1.5-1.1,3-2.3,3.9-3.9
				C67.6,55,66.5,50,63.5,47L63.5,47z"/>
		</g>
		<g opacity="0.63">
			<g>
				<path fill="#F0B5B1" d="M58.8,60.3c0.1-0.1,0.7-1.4,0.3-0.8c-0.3,0.5,0.6-0.5,0.6-0.6c-3.1-0.4-6.3-0.8-9.4-1.2
					c0.1,0.2,0.1,0.3,0.2,0.5c-0.3-1-0.5-2-0.8-3c0.3,2.1-0.1,4,1,5.9c1.2,2.2,3.7,3.6,6.2,3.6c5.4-0.1,8.4-6.1,7-10.9
					c-1.1-3.9-4.4-7-8.6-7c-6.1,0-8.4,6.7-6,11.5c2.1,4.1,7,6.1,11.4,4.6c4.9-1.7,7.3-7.3,4.9-12c-1.8-3.5-6.2-6.3-10.2-6.2
					c-2.6,0.1-5.1,1.4-6.4,3.7c-0.7,1.2-1,2.6-1,4c0,0.3,0,0.7,0.1,1c0,0.7,0,0.7,0-0.2c0.5-0.9,1-1.8,1.5-2.6
					c-0.1,0.1-0.2,0.2-0.3,0.3c0.9-0.5,1.8-1,2.6-1.5c-0.1,0-0.3,0.1-0.4,0.1c1.5,0.2,3.1,0.4,4.6,0.6c-0.1-0.1-0.2-0.1-0.4-0.2
					c0.7,0.7,1.4,1.4,2.2,2.2c0-0.1-0.1-0.2-0.1-0.3c0.3,1,0.5,2,0.8,3c0-0.2,0.1-1,0-1c0.2,0.2-0.8,1.1-0.7,1
					c-1.3,1.5-1.8,0.3-1.7-3.6c-2.2-2.9-2.5-4.3-0.9-4.1c0.5,0.1,1.6,0.6,1.8,1.1c0.2,1.5,0.4,3.1,0.6,4.6c0.1-0.2,0.1-0.3,0.2-0.5
					c-0.5,0.9-1,1.8-1.5,2.6c0.4-0.5,0.4-0.3,0-0.2c-0.4,0-0.7,0.3-1.1,0.2c-0.8,0-1.5-0.6-1.8-1.4c1,3.1,4.2,5.1,7.4,4.2
					c3-0.8,5.2-4.3,4.2-7.4c-1.2-3.7-4.1-6.7-8.2-7.3c-4.3-0.6-9.2,1.6-10.6,5.9C43.2,58.8,60.8,63,63.2,53c1.1-4.6-2.5-9.2-7.2-9.4
					c-4.4-0.2-7.9,3-9,7.1c-1.3,4.7,0.5,10.2,6.1,10.4c2.9,0.1,5.7-2.1,6.5-4.8c0.3-0.8,0.4-1.7,0.5-2.5c0-0.3,0-0.7-0.1-1
					c0-0.7,0-0.7,0,0.1c-0.5,0.9-1,1.8-1.5,2.6c-1.3,0.9-2.5,1.2-3.8,0.9c0.2,0.1,0.3,0.2,0.5,0.3c0.6,0.4,0.6,0.4,0.1,0
					c-0.5-0.6-0.6-1.3-0.2-2.1c-0.4-1.6,0.3-2.6,1.9-3.2c0.8-0.2,1.5-0.1,2,0.4c1.5,0.9,1.7,2.4,0.7,4.2c-0.7,0.7-1.4,1.4-2.2,2.2
					c-2.3,1-4,0.6-5.2-1.1c0.3,0.5,0.3,0.5,0.1,0.1c-0.3-0.9-0.3-2.3,0.6-3c0.9-0.5,1.8-1,2.6-1.5c0.2,0,0.5-0.1,0.7-0.1
					c1,0.3,2,0.5,3,0.8c-0.1-0.1-0.2-0.1-0.3-0.2c0.7,0.7,1.4,1.4,2.2,2.2c0.2,0.5,0.3,0.9,0.4,1.4c0-0.4,0.1-0.7,0.1-1.1
					c0-1.5-0.5-2.7-1.1-4c-1.6-3.8-6.9-3.5-9.4-1.2c-1.2,1-2.2,2.4-2.8,3.8c-1.3,3-0.9,6.4,2.2,8.2C53.1,63.9,57.5,63.2,58.8,60.3
					L58.8,60.3z"/>
			</g>
		</g>
	</g>
</g>
</svg>
